<?xml version="1.0" encoding="UTF-8" standalone="no"?>
<!-- Created with Inkscape (http://www.inkscape.org/) -->

<svg
   width="75.276642mm"
   height="11.04401mm"
   viewBox="0 0 75.276642 11.04401"
   version="1.1"
   id="svg1"
   xml:space="preserve"
   xmlns="http://www.w3.org/2000/svg"
   xmlns:svg="http://www.w3.org/2000/svg"><defs
     id="defs1" /><g
     id="layer1"
     transform="translate(-68.354256,-142.57806)"><rect
       style="display:none;fill:#fbecdd;fill-opacity:1;stroke-width:0.287999;stroke-linecap:round;stroke-linejoin:bevel;paint-order:markers fill stroke"
       id="rect12"
       width="88.106247"
       height="35.71875"
       x="61.939453"
       y="130.24069" /><g
       id="g16"
       transform="translate(-0.01722353,0.58776)"><path
         style="fill:#f78575;fill-opacity:1;stroke-width:0.287999;stroke-linecap:round;stroke-linejoin:bevel;paint-order:markers fill stroke"
         d="m 68.37148,151.51099 1.572101,-7.98064 5.292843,-0.0184 -0.15652,0.9624 -2.544098,-0.0231 -0.489011,2.33826 2.136672,0.0229 -0.201045,0.9552 -2.145929,-0.0402 -0.813824,3.79661 z"
         id="path1" /><g
         id="g3"><path
           id="path2"
           style="display:inline;fill:#f78575;fill-opacity:1;stroke-width:0.287999;stroke-linecap:round;stroke-linejoin:bevel;paint-order:markers fill stroke"
           d="m 79.480671,143.37147 c -0.951554,0.008 -2.200075,0.38878 -2.923335,1.00718 -0.889615,0.76064 -1.593194,2.11549 -1.660364,3.28403 -0.03906,0.6794 -0.01721,1.55204 0.205672,2.23966 0.222884,0.68762 0.572699,1.13439 1.176673,1.44797 0.700381,0.36366 3.03037,0.1736 3.60133,0.0863 0.970583,-0.14848 1.372216,-0.66723 1.973006,-1.44384 0.672072,-0.86875 1.022062,-2.07563 1.031462,-3.17396 0.0074,-0.86524 -0.102669,-1.87297 -0.710551,-2.48874 -0.674715,-0.68348 -1.733524,-0.9666 -2.693893,-0.9586 z m 0.01602,0.90021 c 0.254066,-0.001 0.531316,0.10525 0.614433,0.30282 0.247139,0.58744 -0.04691,2.97189 -0.476457,4.37906 -0.269391,0.88249 -0.866966,1.65233 -1.198376,1.77095 -0.191092,0.0684 -0.500119,0.15026 -0.608749,-0.0212 -0.173092,-0.27319 -0.41765,-0.92222 -0.322461,-2.00659 0.152847,-1.74119 1.008901,-3.98743 1.680001,-4.35477 0.08546,-0.0468 0.196125,-0.0697 0.311609,-0.0703 z" /></g><g
         id="g5"
         transform="translate(8.5711589)"><path
           id="path4"
           style="display:inline;fill:#f78575;fill-opacity:1;stroke-width:0.287999;stroke-linecap:round;stroke-linejoin:bevel;paint-order:markers fill stroke"
           d="m 79.481082,143.37147 c -0.951554,0.008 -2.200592,0.38878 -2.923852,1.00718 -0.889615,0.76064 -1.593194,2.11549 -1.660364,3.28403 -0.03906,0.6794 -0.01721,1.55204 0.205672,2.23966 0.222884,0.68762 0.572699,1.13439 1.176673,1.44797 0.700381,0.36366 3.03037,0.1736 3.60133,0.0863 0.970583,-0.14848 1.372216,-0.66723 1.973006,-1.44384 0.672072,-0.86875 1.022062,-2.07563 1.031462,-3.17396 0.0074,-0.86524 -0.102152,-1.87297 -0.710034,-2.48874 -0.674716,-0.68348 -1.733525,-0.9666 -2.693893,-0.9586 z m 0.0155,0.90021 c 0.254066,-0.001 0.531316,0.10525 0.614433,0.30282 0.247139,0.58744 -0.0469,2.97189 -0.476457,4.37906 -0.269391,0.88249 -0.866965,1.65233 -1.198376,1.77095 -0.191092,0.0684 -0.500119,0.15026 -0.608748,-0.0212 -0.173093,-0.27319 -0.417651,-0.92222 -0.322461,-2.00659 0.152846,-1.74119 1.0089,-3.98743 1.68,-4.35477 0.08546,-0.0468 0.196125,-0.0697 0.311609,-0.0703 z" /></g><g
         id="g9"><path
           id="path6"
           style="display:inline;fill:#f78575;fill-opacity:1;stroke-width:0.287999;stroke-linecap:round;stroke-linejoin:bevel;paint-order:markers fill stroke"
           d="m 97.636152,143.61694 c -1.287036,0.011 -4.301546,0.004 -4.301546,0.004 l -1.615405,7.86877 c 0,0 2.836059,0.0326 4.152718,-0.0465 2.419266,-0.14525 3.425746,-2.00523 3.732072,-3.90467 0.09705,-0.60176 0.05085,-1.22258 -0.0124,-1.82883 -0.14343,-1.37481 -1.000714,-2.10089 -1.955437,-2.09289 z m -1.983341,0.73742 c 0,0 0.938748,0.002 1.194242,0.0222 0.328731,0.0263 0.288089,1.90881 0.188619,2.85926 -0.132303,1.26419 -0.413412,3.34984 -1.684651,3.42304 -0.317488,0.0182 -0.91364,0 -0.91364,0 z" /></g><path
         style="display:inline;fill:#f78575;fill-opacity:1;stroke-width:0.287999;stroke-linecap:round;stroke-linejoin:bevel;paint-order:markers fill stroke"
         d="m 100.55419,144.35437 h 1.79424 l -1.48991,7.14216 h 2.59959 L 105,144.35437 h 2.02275 l 0.0176,-0.73759 h -6.49945 z"
         id="path8" /><g
         id="g10"><path
           id="path9"
           style="display:inline;fill:#f78575;fill-opacity:1;stroke-width:0.287999;stroke-linecap:round;stroke-linejoin:bevel;paint-order:markers fill stroke"
           d="m 111.60533,143.60505 c -1.59955,-0.004 -3.52795,0.0119 -3.52795,0.0119 l -1.78491,7.87962 h 2.59209 l 0.91312,-3.69383 1.32292,3.69383 h 2.74195 c 0,0 -1.32615,-3.16178 -1.53117,-3.54242 -0.0634,-0.11774 -0.081,-0.39739 0.0527,-0.39739 0.93173,0 1.79535,-0.86159 1.78955,-1.69241 -0.003,-0.4218 0.12632,-0.84503 0.007,-1.24953 -0.14256,-0.48179 -0.58326,-0.9872 -1.16892,-0.99787 -0.37652,-0.007 -0.87293,-0.0106 -1.40611,-0.0119 z m -0.7798,0.71779 c 0.23733,0.002 0.51,0.0133 0.65009,0.0543 0.45228,0.13242 0.55332,0.84668 0.49351,1.31413 -0.0839,0.65591 -0.48232,1.58274 -1.14308,1.60817 -0.29275,0.0113 -0.96274,0.007 -0.96274,0.007 l 0.52297,-2.97605 c 0,0 0.20192,-0.009 0.43925,-0.007 z" /></g><g
         id="g1"><path
           id="path11"
           style="display:inline;fill:#f78575;fill-opacity:1;stroke-width:0.287999;stroke-linecap:round;stroke-linejoin:bevel;paint-order:markers fill stroke"
           d="m 117.46853,143.60453 -3.60598,7.89203 h 1.0604 l 0.91674,-2.04691 h 2.31459 l -0.001,2.04691 h 2.98018 l -0.86093,-7.89203 z m 0.092,1.8278 0.38964,3.21272 h -1.85105 z" /></g><path
         style="fill:#f78575;fill-opacity:1;stroke-width:0.287999;stroke-linecap:round;stroke-linejoin:bevel;paint-order:markers fill stroke"
         d="m 122.47909,143.6046 0.49034,7.89193 h 2.84562 l 3.73554,-7.89193 h -1.25156 l -2.48319,5.27048 h -0.14366 l -0.2854,-5.27048 z"
         id="path13" /><path
         style="display:inline;fill:#f78575;fill-opacity:1;stroke-width:0.287999;stroke-linecap:round;stroke-linejoin:bevel;paint-order:markers fill stroke"
         d="m 130.44839,143.6046 -1.7044,7.89193 h 5.26429 l 0.13929,-0.90055 -2.39529,-0.0516 0.51543,-2.73408 2.10552,0.0143 0.1693,-0.7038 -2.10916,-0.026 0.4539,-2.61943 2.67176,-0.0123 0.1571,-0.85842 z"
         id="path14" /><path
         style="fill:#f78575;fill-opacity:1;stroke-width:0.287999;stroke-linecap:round;stroke-linejoin:bevel;paint-order:markers fill stroke"
         d="m 136.78386,143.6046 -1.64004,7.89193 h 5.19288 l 0.23823,-1.02385 -2.61617,0.007 1.4448,-6.87508 z"
         id="path15" /><path
         style="fill:#ffcc66;fill-opacity:1;stroke-width:0.287999;stroke-linecap:round;stroke-linejoin:bevel;paint-order:markers fill stroke"
         d="m 132.69587,141.9903 0.94842,1.07296 6.42639,7.9e-4 -1.13243,5.31856 4.70987,4.6517 -0.0228,-11.03118 z"
         id="path16" /></g></g></svg>
